<svg width="36" height="36" viewBox="0 0 36 36" fill="none" xmlns="http://www.w3.org/2000/svg">
    <g clip-path="url(#clip0_357_847)">
        <path
            d="M18 35.5628C27.6429 35.5628 35.46 27.7457 35.46 18.1028C35.46 8.45993 27.6429 0.642822 18 0.642822C8.35715 0.642822 0.540039 8.45993 0.540039 18.1028C0.540039 27.7457 8.35715 35.5628 18 35.5628Z"
            fill="url(#paint0_linear_357_847)" />
        <path d="M17.9973 5.65527V14.7795L25.7092 18.2256L17.9973 5.65527Z" fill="white"
            fill-opacity="0.602" />
        <path d="M17.9983 5.65527L10.2854 18.2256L17.9983 14.7795V5.65527Z" fill="white" />
        <path d="M17.9973 24.1381V30.3379L25.7144 19.6614L17.9973 24.1381Z" fill="white"
            fill-opacity="0.602" />
        <path d="M17.9983 30.3379V24.1371L10.2854 19.6614L17.9983 30.3379Z" fill="white" />
        <path d="M17.9973 22.704L25.7092 18.2262L17.9973 14.7822V22.704Z" fill="white"
            fill-opacity="0.2" />
        <path d="M10.2854 18.2262L17.9983 22.704V14.7822L10.2854 18.2262Z" fill="white"
            fill-opacity="0.602" />
        <circle cx="18.0001" cy="17.9999" r="14.8214" stroke="white" stroke-width="2.5"
            stroke-linejoin="round" />
    </g>
    <defs>
        <linearGradient id="paint0_linear_357_847" x1="31.018" y1="7.14921" x2="5.03748"
            y2="29.0091" gradientUnits="userSpaceOnUse">
            <stop stop-color="#B6509E" />
            <stop offset="1" stop-color="#2EBAC6" />
        </linearGradient>
        <clipPath id="clip0_357_847">
            <rect width="36" height="36" fill="white" />
        </clipPath>
    </defs>
</svg>
    